# xmcd CD database file
#
# Track frame offsets:
#	150
#	18956
#	33244
#	55359
#	73164
#	92935
#	111531
#	129680
#	151377
#	169168
#
# Disc length: 2474 seconds
#
# Revision: 1
# Processed by: cddbd v1.5.2PL0 Copyright (c) Steve Scherf et al.
# Submitted via: CDex 1.70beta2
#
DISCID=8c09a80a
DTITLE=윤상 - Songbook Play With Him! CD2
DYEAR=2008
DGENRE=K-Pop
TTITLE0=El camino_정재일
TTITLE1=소리_W and Whale
TTITLE2=넌 쉽게 말했지만_조원선+윤상
TTITLE3=새벽_유희열
TTITLE4=너에게_김태형+Kayip
TTITLE5=가려진 시간 사이로_윤건
TTITLE6=흩어진 나날들_Casker
TTITLE7=소년_이선균+박지만
TTITLE8=질주_Astro Bits
TTITLE9=OUT→Play with him! (AtPwM mix)
EXTD=YEAR: 2008
EXTT0=
EXTT1=
EXTT2=
EXTT3=
EXTT4=
EXTT5=
EXTT6=
EXTT7=
EXTT8=
EXTT9=
PLAYORDER=
